<mxfile host="app.diagrams.net" agent="Mozilla/5.0 (Macintosh; Intel Mac OS X 10_15_7) AppleWebKit/537.36 (KHTML, like Gecko) Chrome/135.0.0.0 Safari/537.36 Edg/135.0.0.0" version="26.2.14">
  <diagram name="Página-1" id="_v8gCUxJ7W-kHHJNA6k-">
    <mxGraphModel dx="695" dy="416" grid="1" gridSize="10" guides="1" tooltips="1" connect="1" arrows="1" fold="1" page="1" pageScale="1" pageWidth="827" pageHeight="1169" math="0" shadow="0">
      <root>
        <mxCell id="0" />
        <mxCell id="1" parent="0" />
        <mxCell id="a5URKYRH8BtBQwz5Gy2x-1" value="" style="rounded=1;whiteSpace=wrap;html=1;fillColor=#bac8d3;strokeColor=#23445d;" vertex="1" parent="1">
          <mxGeometry x="40" y="110" width="160" height="330" as="geometry" />
        </mxCell>
        <mxCell id="a5URKYRH8BtBQwz5Gy2x-2" value="Centro de Costos" style="rounded=0;whiteSpace=wrap;html=1;" vertex="1" parent="1">
          <mxGeometry x="60" y="90" width="120" height="30" as="geometry" />
        </mxCell>
        <mxCell id="a5URKYRH8BtBQwz5Gy2x-3" value="Gerencia" style="shape=umlActor;verticalLabelPosition=bottom;verticalAlign=top;html=1;outlineConnect=0;" vertex="1" parent="1">
          <mxGeometry x="100" y="130" width="20" height="40" as="geometry" />
        </mxCell>
        <mxCell id="a5URKYRH8BtBQwz5Gy2x-6" value="Administración" style="shape=umlActor;verticalLabelPosition=bottom;verticalAlign=top;html=1;outlineConnect=0;" vertex="1" parent="1">
          <mxGeometry x="100" y="220" width="20" height="40" as="geometry" />
        </mxCell>
        <mxCell id="a5URKYRH8BtBQwz5Gy2x-7" value="Planta" style="shape=umlActor;verticalLabelPosition=bottom;verticalAlign=top;html=1;outlineConnect=0;" vertex="1" parent="1">
          <mxGeometry x="100" y="300" width="20" height="40" as="geometry" />
        </mxCell>
        <mxCell id="a5URKYRH8BtBQwz5Gy2x-10" value=".&lt;div&gt;.&lt;/div&gt;&lt;div&gt;.&lt;/div&gt;" style="text;html=1;align=center;verticalAlign=middle;whiteSpace=wrap;rounded=0;fontStyle=1;fontSize=17;spacing=0;" vertex="1" parent="1">
          <mxGeometry x="95" y="370" width="30" height="60" as="geometry" />
        </mxCell>
        <mxCell id="a5URKYRH8BtBQwz5Gy2x-11" value="Creación de requermiento" style="rounded=0;whiteSpace=wrap;html=1;" vertex="1" parent="1">
          <mxGeometry x="60" y="420" width="120" height="40" as="geometry" />
        </mxCell>
        <mxCell id="a5URKYRH8BtBQwz5Gy2x-13" value="JEFATURA" style="shape=umlActor;verticalLabelPosition=bottom;verticalAlign=top;html=1;outlineConnect=0;" vertex="1" parent="1">
          <mxGeometry x="240" y="220" width="30" height="60" as="geometry" />
        </mxCell>
        <mxCell id="a5URKYRH8BtBQwz5Gy2x-17" value="&lt;font style=&quot;color: rgb(255, 0, 0);&quot;&gt;aprueba&lt;/font&gt;" style="text;html=1;align=center;verticalAlign=middle;whiteSpace=wrap;rounded=0;" vertex="1" parent="1">
          <mxGeometry x="225" y="300" width="60" height="30" as="geometry" />
        </mxCell>
        <mxCell id="a5URKYRH8BtBQwz5Gy2x-20" value="" style="endArrow=classic;html=1;rounded=0;exitX=1;exitY=0.227;exitDx=0;exitDy=0;exitPerimeter=0;" edge="1" parent="1">
          <mxGeometry width="50" height="50" relative="1" as="geometry">
            <mxPoint x="200" y="260" as="sourcePoint" />
            <mxPoint x="320" y="260.09000000000003" as="targetPoint" />
          </mxGeometry>
        </mxCell>
        <mxCell id="a5URKYRH8BtBQwz5Gy2x-23" value="Item 2" style="rounded=0;whiteSpace=wrap;html=1;" vertex="1" parent="1">
          <mxGeometry x="420" y="290" width="120" height="30" as="geometry" />
        </mxCell>
        <mxCell id="a5URKYRH8BtBQwz5Gy2x-24" value="Item..." style="rounded=0;whiteSpace=wrap;html=1;" vertex="1" parent="1">
          <mxGeometry x="420" y="320" width="120" height="30" as="geometry" />
        </mxCell>
        <mxCell id="a5URKYRH8BtBQwz5Gy2x-26" value="Creación de Orden de Compra" style="rounded=0;whiteSpace=wrap;html=1;fillColor=#fad7ac;strokeColor=#b46504;" vertex="1" parent="1">
          <mxGeometry x="320" y="230" width="150" height="50" as="geometry" />
        </mxCell>
        <mxCell id="a5URKYRH8BtBQwz5Gy2x-22" value="Item 1" style="rounded=0;whiteSpace=wrap;html=1;" vertex="1" parent="1">
          <mxGeometry x="420" y="260" width="120" height="30" as="geometry" />
        </mxCell>
        <mxCell id="a5URKYRH8BtBQwz5Gy2x-27" value="LOGISTICA" style="shape=umlActor;verticalLabelPosition=bottom;verticalAlign=top;html=1;outlineConnect=0;fillColor=#b0e3e6;strokeColor=#0e8088;" vertex="1" parent="1">
          <mxGeometry x="590" y="220" width="30" height="60" as="geometry" />
        </mxCell>
        <mxCell id="a5URKYRH8BtBQwz5Gy2x-31" value="" style="endArrow=classic;html=1;rounded=0;exitX=1;exitY=0.227;exitDx=0;exitDy=0;exitPerimeter=0;entryX=0.488;entryY=0.585;entryDx=0;entryDy=0;entryPerimeter=0;" edge="1" parent="1" target="a5URKYRH8BtBQwz5Gy2x-27">
          <mxGeometry width="50" height="50" relative="1" as="geometry">
            <mxPoint x="470" y="254.63" as="sourcePoint" />
            <mxPoint x="590" y="254.72000000000003" as="targetPoint" />
          </mxGeometry>
        </mxCell>
        <mxCell id="a5URKYRH8BtBQwz5Gy2x-32" value="Verificación&amp;nbsp;" style="text;html=1;align=center;verticalAlign=middle;whiteSpace=wrap;rounded=0;" vertex="1" parent="1">
          <mxGeometry x="575" y="180" width="60" height="30" as="geometry" />
        </mxCell>
        <mxCell id="a5URKYRH8BtBQwz5Gy2x-33" value="&lt;font style=&quot;color: rgb(255, 0, 0);&quot;&gt;aprueba&lt;/font&gt;" style="text;html=1;align=center;verticalAlign=middle;whiteSpace=wrap;rounded=0;" vertex="1" parent="1">
          <mxGeometry x="575" y="300" width="60" height="30" as="geometry" />
        </mxCell>
        <mxCell id="a5URKYRH8BtBQwz5Gy2x-34" value="GERENCIA" style="shape=umlActor;verticalLabelPosition=bottom;verticalAlign=top;html=1;outlineConnect=0;fillColor=#d5e8d4;strokeColor=#82b366;gradientColor=#97d077;" vertex="1" parent="1">
          <mxGeometry x="760" y="220" width="30" height="60" as="geometry" />
        </mxCell>
        <mxCell id="a5URKYRH8BtBQwz5Gy2x-37" value="" style="endArrow=classic;html=1;rounded=0;entryX=0.475;entryY=0.604;entryDx=0;entryDy=0;entryPerimeter=0;" edge="1" parent="1" target="a5URKYRH8BtBQwz5Gy2x-34">
          <mxGeometry width="50" height="50" relative="1" as="geometry">
            <mxPoint x="610" y="254.63" as="sourcePoint" />
            <mxPoint x="750" y="254.63" as="targetPoint" />
          </mxGeometry>
        </mxCell>
        <mxCell id="a5URKYRH8BtBQwz5Gy2x-38" value="&lt;font style=&quot;color: rgb(255, 0, 0);&quot;&gt;aprueba&lt;/font&gt;" style="text;html=1;align=center;verticalAlign=middle;whiteSpace=wrap;rounded=0;" vertex="1" parent="1">
          <mxGeometry x="745" y="300" width="60" height="30" as="geometry" />
        </mxCell>
        <mxCell id="a5URKYRH8BtBQwz5Gy2x-39" value="" style="sketch=0;html=1;aspect=fixed;strokeColor=none;shadow=0;align=center;fillColor=#F4AF20;verticalAlign=top;labelPosition=center;verticalLabelPosition=bottom;shape=mxgraph.gcp2.check" vertex="1" parent="1">
          <mxGeometry x="280" y="220" width="37.5" height="30" as="geometry" />
        </mxCell>
        <mxCell id="a5URKYRH8BtBQwz5Gy2x-40" value="" style="sketch=0;html=1;aspect=fixed;strokeColor=none;shadow=0;align=center;fillColor=#F4AF20;verticalAlign=top;labelPosition=center;verticalLabelPosition=bottom;shape=mxgraph.gcp2.check" vertex="1" parent="1">
          <mxGeometry x="550" y="220" width="37.5" height="30" as="geometry" />
        </mxCell>
        <mxCell id="a5URKYRH8BtBQwz5Gy2x-41" value="" style="sketch=0;html=1;aspect=fixed;strokeColor=none;shadow=0;align=center;fillColor=#2D9C5E;verticalAlign=top;labelPosition=center;verticalLabelPosition=bottom;shape=mxgraph.gcp2.check" vertex="1" parent="1">
          <mxGeometry x="720" y="225" width="37.5" height="30" as="geometry" />
        </mxCell>
      </root>
    </mxGraphModel>
  </diagram>
</mxfile>
